<mxfile host="app.diagrams.net" modified="2021-08-27T20:32:09.961Z" agent="5.0 (Macintosh; Intel Mac OS X 10_15_7) AppleWebKit/537.36 (KHTML, like Gecko) Chrome/92.0.4515.131 Safari/537.36" etag="h8wIkmgeA_A3UaE9hUgI" version="15.0.3" type="github">
  <diagram id="09gCixsw90O7OEbNQpDi" name="Page-1">
    <mxGraphModel dx="2066" dy="3404" grid="1" gridSize="10" guides="1" tooltips="1" connect="1" arrows="1" fold="1" page="1" pageScale="1" pageWidth="850" pageHeight="1100" math="0" shadow="0">
      <root>
        <mxCell id="0" />
        <mxCell id="1" parent="0" />
        <mxCell id="lgcZfjw6f_4Ctft2J4iv-2" value="CADASTRO DE PESQUISA" style="text;html=1;resizable=0;autosize=1;align=center;verticalAlign=middle;points=[];fillColor=none;strokeColor=none;rounded=0;" vertex="1" parent="1">
          <mxGeometry x="31" y="-2100" width="170" height="20" as="geometry" />
        </mxCell>
        <mxCell id="lgcZfjw6f_4Ctft2J4iv-6" style="edgeStyle=orthogonalEdgeStyle;rounded=0;orthogonalLoop=1;jettySize=auto;html=1;exitX=1;exitY=0.5;exitDx=0;exitDy=0;" edge="1" parent="1" source="lgcZfjw6f_4Ctft2J4iv-4">
          <mxGeometry relative="1" as="geometry">
            <mxPoint x="340" y="-2015" as="targetPoint" />
          </mxGeometry>
        </mxCell>
        <mxCell id="lgcZfjw6f_4Ctft2J4iv-4" value="" style="shape=image;verticalLabelPosition=bottom;verticalAlign=top;imageAspect=0;aspect=fixed;image=data:image/png,iVBORw0KGgoAAAANSUhEUgAAAIAAAACACAMAAAD04JH5AAAAA3NCSVQICAjb4U/gAAAACXBIWXMAAB6MAAAejAE1eHypAAAAGXRFWHRTb2Z0d2FyZQB3d3cuaW5rc2NhcGUub3Jnm+48GgAAAZtQTFRFT7RwT7lvT7pvUKNyUKZxUKdxUKhyUKpxUK1wULFwULNvUZJ0UZd0UZlzUZtyUaByUn93UoV2Uop1Uo11UpJ0UpR0UpZzU254U294U3J4U3R3U3l3U3t3U313U392U4B2U4F2U4V1U4Z2VGp5VGt5VG15VG94VHB4VHF5VHR3VWt5Vmt4WGt4WWp4WWx3Wmp4XG90XnBzX3FyYnJxZWt2Zmt2Z3VtZ3ZtbXhqb3podWt0dmxzd35jeGx0e4BhfoJfgoRdg2xyg4RchGxyjIpXjoxUj21wj41VkW1wlpBQlpBRnZRNnpVMpG1spbG5p5pFqZtFq25rrZ1CsJ9Bsm9rs6E+uaU6u6U5wW9ownBow29nya4xyq4xzK8vzrEuz7Et0HBm1rUp13Bl2bcn2rcm3nBj5XBi6L8e6nFh6sAd7HFh7HVl7JCF7MEb7MfD7PDx7XFh7ZOI7ZiO7a6m7bSu7bav7fHy7sMa7vLz78Ma7/P08MQZ8PP08fT08fT19ff39ff4+vv7+vv8+/z8/P39/f39/f7+/v//////AG95tAAAAfpJREFUeNrt1tdTE1EUBvBkBZGmFJEiSCCAIIkIBtQAhqj0Lh2UIgQjzUsRhA29/tkwXnbvYWfykjmYMHzf43cezm9ndu9emzPKsQEAQCwBXPV+j3X+5mPTW2v3svBF2S0AakeDQohAC51++L6t6/rcJ9qlPdI0zZ6Qzw34PC9kxqvMYfuyLjP0yuye2bV/sSfzAmqN/UL0G7OGLd1Ih9EVa2YcrIBRc79Y8Mqqctbcr/+qk12OTQESSxkBrqACiO7rF0AnaZWdQyMpYATUk/1iTHbNFPBVdk8pIJMR4KeAadl1UsCI7FIpIIsR4KGAQdn5KKBLdhkUkM75EgYIoE1W1VsE4JPdcwqo4AS0qP0/3Nddr9o/YRwET9T+x7wH0bj5FTYa1esZY//Pd0ZXnmR+hdm8gKr+Bfn8jWpYMyz3T75XXV6c3P8gl/tf4PR2j00PtrlvjH1936YGvlTSqqQo5WF8Cs8x6MR9AAAArgA9UY7td5QDAAAAABBTgD8blqyo2d8DxuyHASwKS9bUbO+CMecAAAAAAAAAAAAAEQA2Q4zZiQDwX+6EAAAAAAAxDQgdM+YoAgD+hgAAAAAAAAAAwO4pY05wJwQAAAAAAOAuAvbOGHMaCQA3IgAAAAAAAAC4F4DVJUvW1Sx0xJjDMICoBAAAAAAAAAAuAZWOtN/lL5z8AAAAAElFTkSuQmCC" vertex="1" parent="1">
          <mxGeometry x="31" y="-2060" width="90" height="90" as="geometry" />
        </mxCell>
        <mxCell id="lgcZfjw6f_4Ctft2J4iv-5" value="" style="shape=image;verticalLabelPosition=bottom;verticalAlign=top;imageAspect=0;aspect=fixed;image=data:image/png,iVBORw0KGgoAAAANSUhEUgAAAIAAAACACAYAAADDPmHLAAAABHNCSVQICAgIfAhkiAAAAAlwSFlzAAADoAAAA6ABbtAfZwAAABl0RVh0U29mdHdhcmUAd3d3Lmlua3NjYXBlLm9yZ5vuPBoAAA3uSURBVHja7Z15dFNVHsdvWUdBdBSXcRAd+oIgBzd0ZlygqW3ZdPQgFsqStA4o4Ia4HOXMiBWP0KRVlANqaUUtRZyiwDiKrKbZ2qQkaVOmdIPiAoqgwyLQJWl/83tNq2mbtlnelnffH98DpxzoC59P7/bu/V0CAETIkDTHKJLqXEK0rtWYTzHF5KHtX5I4/X4yIXMH/voeidMtJ2r9ZDJl9UChn4+2CPNN5jpuJVqnHmFXY6BLpm93IHgIkDOYAhRjNhmTPkABFmUCkLRSFdG4PgkIPTgB/FOHmYVPHKOAk7gA5FHHxfgTvxbhenqFH7wA7XGQeP1dCjyJCkDmOhmEeiAo8OEJwMZD1LqFCkCJCUA0znsQ6M8hwQ9PAF/U+jVEnd5PASkBAUiq6/6gm3yuBPBlKyHpfRSYIgqAU7uxCPKXsOBHLgAbnQJTJAHIw67LEeLhsOFzIwBGp+H6P+eNIrgg2wGxOXYYP+9TSJj1EdyIGYp/GKMI0P4PaJ07I4LPmQD6BjJBNzqSz1JQAH1zikGdUwKrEHodBtoz5yP478x8gLacw2ybkQ9/1+TBFdQKQNKckyOGz50AQCbot4X5WWJy7TAbc9gfeg8C+MczcwO8Ha0ihP8X06EPwnNLSoDWmUHG3aF8jnUlcDsCdnUHPggB2nMmZSO8EG3dQwRNf2kqJ/C5FiBOXxQC/DkIt743+EEK4MtG2JpcAIMpEMBVLFEBgMRn3NTb8+fa4NVgwIcsgC/lye/DVbIVgKSVXIXgWiQrQJx+WY/w7bAgFPhhCMCmeMp2GChPATSlj3AGnx8BnD00+3EItEkAAdjkyVMArfNziQuAg0HdsM7PjXP6C3GKdzRU+BEIwI4JUmQogOsbyQsQlzUlQL+/NBz4EQmQD3U4KBwgGwHY9/EIrUnyAkzInOf/3B/a4TIEeUoEAWDmBnhGPgJo3FdwCp+3FqDjQHCdHZ4MFz4HAhyUjwDasluiRIDsTgJ8JZoAmOR8uEEmLYDrtqgQQK3L7dT8e8UUYEY+LJWHAHMdf4iSFuCV9mfOscHUSOBzIQB2A5/JQwDfOwBvFAwCF/gt/MwXW4CUfHDIaRp4RPpdgP4+v+nfMrEFwC7ge/kIkOraJX0BVjJ+XcBboncB+dAop5XAJyQuwAH/580pgZckIMBRGQngGC5tATJXdBDADvNEF2Aj7JPZ62CnS7ICjNf9ucMScAlMlkALsE1eAmicj0tUgPLOx8feL4VLwnkDyOksYCM8Jy8BHnX0R3i10hOg60ugtpXAnWIKMHsjqOS3KTTVOUNiAuztdh+AHRaKKECljLeFc7A1jBsBvCQ+a1x3z5lvgyEI8idRBNgIi+QrwGzXtQjxR9EFUGc+3es+QDssEUGAKrUB+slWAF9XUHoXgmwUTQC/Fz89ZXUtDOxp7z9PO4IeoONwqKY0TRwBdMZQqoe0nQOoF0iAtXQdD/cNCs8LKEABGZd+YajPyZ4C4luAGRthr5Sbfv4KRKQ6x4X8sih0AVqw2U+PpFxMTgk8i2CbeRKgOLkALqW3RIxvz8CnPAlwmMRnctKv5pbA3xDuGS4FSMmHD6LhPIAwRaK0rjuIttTMkQA/YZZwXS1svQ1uwNbAwIEAJ2ZugAVKkajAIkzB5HVbPqZ7AbwYE4nLfIYkZlzM5zO27hoqgfIwBDiHP/Ur5uTDEKVIVG/fLLmgL0krVeO0UUdSXQUI39paXGL69iIEfQJBl+GvX+DIfh1R69OIOmuo0P8hOEu4GYG/3HZiuCGAAC3s5g62qccp3oOaPBik1AiScdgNpdlFMHb+Zrg9OQ+GP5oN/ZUSMUoUAZQoAihRBJBfcBA4BmcED+GM4KlcO2Sss0MeDgL3Yqy5JbCJ/Rr+2aJ1+2AKO4VkTxwrAgS7gWSu+3qiLYvHWcAczHNEU/oGzgI+JrMteb7Rf+Z6MkG/kn2zh0nBr40n6vTf8f1s2cVwK4JfgZCrw3hRxO402oJi3MtWGVME8P/H59iGEK1zJk75NiHo090uBM2x9bQQVM9u9MCp4VISl3U7V1VB1xpgMIJL71wOLqL4ag+8xtYWpLdY9Kz9VxKNayGC3RH0K+KeBeick5gcos4aFUFJuFQE9T1n4LumJdcG29eXwDX01ApmS8RrXCvCehsYmgC/vRCK0/87lLJw2Lf/FWPnEXznnGQrkcm7UmhyxQCiLV2MIE+EvR8gPAH8U0zidQm9wF/O/mQKCP+32ODjt83we3ntCm6tFIL9u6b0UMR7AiMXoK1FyFxLJmZ2WJpNN0A/7JvXiwK+Y47gLCJBHieDkisGk1TnVs7OBXAjQPupoFoyIeNO9jnz3DCI7YslAL89jWwt4ug+Hu7bBOrm9GgYpwK0prmPOlOfXdxikxD8X8cFKMHoqBSAzHWOR2DHOS8Qwb0ArRk6Ldv2jtXbIDUJWjem2uDKqBIAB3rzI9r5K4IAbIbcu8a5xtx0VoItwT4prCIGC38xL+AFEIDNBZPe2v+m4fxJMUC/Z/d6/uU4emSHy+62uTdbK8pW7a60Li0ss2YYK60vrvVYmTvAMGawZAUgGuckzkvCCCwAm0FTVpe9W9TcxCfsj/cdO1q1//XC05XaosbqB/a31Ez6AWoSmzHQnpaKu6u9ZgY6pQVz0GtWbfGYmXSvOXYaGJhhogvQes2r1nWKV/gCCcBmhCbfyDX0DSWnfi4rzzE1VE9zI+AWf9iB0o0AEFiK2N1eU2wKbGcGCi4AmVdxKWenfyUiAJvJLxdGLMH7JQ3n2Ob8bNWsEoTa1Bv0MAXwz/+8FtXqJvPImwQRgKgN/RDMXkHgCywApmlxXl15uPBZ8C3VE4+HAp0DAfxjabKqbuZXAK3rBcHgCy8A9E98/WB2cbMnFPCbHd9+c74q2REueA4FYOP1mJhVYLn+Is4FaGv6T8lZADZxL+wqDG4U72mq3Z9hQHj1kcLnUID2HPGaVNO5FUDrel1Q+CIJEKPWn8na88vxnuDvcNnc3uqpB7kAz5MAvlhiPwfDyKERC9C2zNtAgwBsrkn5wNwd/DL3elMwo3pJCIDxmGOrwPqnayMTwHd6B2gRgD15tPLL011uENlf/raRD/h8CtCWo43GEWPDEqDt/t9mygSAmxZt6XAusLJ8VSEf4AUSgM1Jj2Xk+NAF8G3QBNoEiInPPPGO1dvIwm8b7EGUC8Cm3mth7g9VgEM0CsDmwQyb5XBFOu/wBRSgVYImI3NLUAK0Nf9AqwB5G9L2CAFfYAHYHALDdZf0LkCq65+0ChD3yIsVoS7nRpEAOEVktvUugNbloFGAiyauPNt4IOlroeCLIgCm2aR6vvu9nXPcw0SFL6IA7q+mmYWEL5YAGI/HqJoQWACNK4VGAe578vkyoeGLKAB4zMwB5N2nqwBa1zO0CRCj1rX8Uj7pAE0CtMbEzO0qQKorizYBluoeswgB21n8VFX65m1G//xj02e7ln24wdg5jebrvQIIUAsGdb/OLcBHNAkwMCGjwVuV9L0QArDAmQyAYHLOOKZBmJZA9XBnAQppEuDZ1x63CtXcS1IAS+xhcIzr7y9ADU0CnHBOLaVaAF9XMN9fgLO0CDA6Jf1rvt7yRZUAFmavvwBAiwCffzLLIOSIX7ICmJmm9u1kVAlQXzHxoCJAezfg20pGjQBXP7D8R6Hn/JIWwMysp0qA51c8ZlUE6JBjyD+GGgGcu6ebFAE6psky4jbf8S+xM8Mwki36xGeaqxPdigCdxwGxj9BTBLI68QcuoFaULDw4/0NbYTD5y6qTrmAFSHvXVDhvnaHXPJH7hYG718TMMkoESO+D8LxcCLBp5yp7sFD5iCqj5TSHLcA7dAhQO+Vyrpp1WQlgYbbRIUBl4lhFgICx0yFATWKiIkDAfEuJAEmzOBNg1yqbjARooGQGkDRVaQEC5jgtLcDNigABpoFmpowOAeoSrlQECJgvKVkHIDEIz6MI0CXv0bMSWJP0HRcCbN2j28dCCCYIrD4UsMFklM5zlMOaAq/SJIBdeRfQZSl4EUUCJGxRBOiyEng/TS3AYkWAjsfFoGjMpfQIUDn5OkWADvmKvnsDa4TdEyBlAZrNqqcoFCBpuSKAL2AZMZw+AQ5OHKcIgD/9FsZF79WxNYlHqBfAxCyjWQA95QJ4wThCRa8AlQmXIZxT9B4OZXKU28OrE5YKIcDa/6y3jNY31XWJrrFL6o2jGwUQ4DwUjfyjIsB3d1wg5FhAKhVCPCZmhWjXx0tvo2jCPKoEMDE/we4RFysC/JrkvgikghYBcOS/RJDr46Nsq1gCV+cFJF0n0KxyQ8WYAYoAAbuCxKdlLsDxnu4RUATwjQdyZCpAY2+l4xX4bNiiSTUJRtkJYGHm8XJ9vDzHA+qhCKhOLgJ4zLFv8nJ9vLy7gvgxCOlY1AvAVggvIH0VAcLJocThCKo0WgXwmFSZgWoCKwKEEvfEQQjrkygToMFriU3l5fp4OkNioDrhFa7rCvIkwLHWa+j5uD5eGRckzkBwZ6UqQLOZcYIx9hpero9X0paqpKvb1gq8EhLgh2aLakGwgz1FAG4WjG6AmoTPRBbgDIJ/CXbeOIi328OV9LqfYDzCtAksQBNmDVhjr+DysygwIxWhOvENBHuIJwHYSyQKmy3M05H084oAgowTEm6E2qRlCNkVoQDn2YUcr0mVBvZRl/H93Ao4XsYK6mGtdYmqE7U4i3gRf7+6dV2hOsnaUjG+kL3AyWtW7UHYefj7DPaQhtfEPOQxxt4JjqsvFPJZ/w/FwHZagF4iXAAAAABJRU5ErkJggg==" vertex="1" parent="1">
          <mxGeometry x="350" y="-2060" width="90" height="90" as="geometry" />
        </mxCell>
      </root>
    </mxGraphModel>
  </diagram>
</mxfile>
